<svg width="170" height="169" viewBox="0 0 170 169" fill="none" xmlns="http://www.w3.org/2000/svg">
    <path d="M2 23.5V1H45.5L48 3.5H88L90 4.5H4.5V28L2 23.5Z" fill="#FF0440" stroke="#FF0440"/>
    <path d="M168 145.5L168 168L124.5 168L122 165.5L82 165.5L79.5 164L165.5 164.5L165.5 141L168 145.5Z" fill="#FF0440"
          stroke="#FF0440"/>
    <path d="M146.5 1.5L169 1.5L169 45L166.5 47.5L166.5 87.5L165.5 89.5L165.5 4L142 4L146.5 1.5Z" fill="#FF0440"
          stroke="#FF0440"/>
    <path d="M23.5 167.5L1 167.5L1.00001 124L3.50001 121.5L3.50001 81.5L4.50001 79.5L4.5 165L28 165L23.5 167.5Z"
          fill="#FF0440" stroke="#FF0440"/>
    <path d="M164.5 4.5H5V164H164.5V4.5Z" stroke="#FF0440"/>
</svg>
