<svg width="111" height="123" viewBox="0 0 111 123" fill="none" xmlns="http://www.w3.org/2000/svg">
<ellipse cx="1.5" cy="13" rx="1.5" ry="13" transform="matrix(1 0 0 -1 52.9999 106.997)" fill="#FF0440"/>
<ellipse cx="1.5062" cy="10.92" rx="1.5062" ry="10.92" transform="matrix(0.747691 -0.664047 -0.664047 -0.747691 89.8158 93.3299)" fill="#FF0440"/>
<ellipse cx="25.3775" cy="84.165" rx="1.5062" ry="10.92" transform="rotate(-138.391 25.3775 84.165)" fill="#FF0440"/>
<g filter="url(#filter0_d_222_105)">
<mask id="path-4-inside-1_222_105" fill="white">
<path d="M107 41C99.1126 52.5079 81.482 68.1587 54.5721 70C27.1982 68.619 14.2072 54.8095 4 41C18.5 52 31.7096 65 54.5721 65C77.4345 65 96 48 107 41Z"/>
</mask>
<path d="M107 41C99.1126 52.5079 81.482 68.1587 54.5721 70C27.1982 68.619 14.2072 54.8095 4 41C18.5 52 31.7096 65 54.5721 65C77.4345 65 96 48 107 41Z" fill="#004166" fill-opacity="0.2" shape-rendering="crispEdges"/>
<path d="M107 41L111.124 43.8267L104.316 36.7817L107 41ZM54.5721 70L54.3202 74.9936L54.6169 75.0086L54.9134 74.9883L54.5721 70ZM4 41L7.02193 37.0165L-0.0208573 43.972L4 41ZM102.876 38.1733C95.6404 48.7299 79.2766 63.2979 54.2308 65.0117L54.9134 74.9883C83.6873 73.0195 102.585 56.286 111.124 43.8267L102.876 38.1733ZM54.824 65.0063C42.0012 64.3595 32.7969 60.8326 25.6416 56.0136C18.4087 51.1422 13.0146 44.7841 8.02086 38.028L-0.0208573 43.972C5.19265 51.0254 11.3976 58.4768 20.0555 64.3078C28.791 70.1912 39.769 74.2596 54.3202 74.9936L54.824 65.0063ZM0.978073 44.9835C14.8919 55.5387 29.6346 70 54.5721 70V60C33.7846 60 22.1081 48.4612 7.02193 37.0165L0.978073 44.9835ZM54.5721 70C67.2425 70 78.4906 65.2936 87.735 59.9548C92.3724 57.2766 96.5864 54.3908 100.27 51.7851C104.045 49.1147 107.072 46.8807 109.684 45.2183L104.316 36.7817C101.428 38.6193 98.0092 41.1353 94.4951 43.6212C90.8895 46.1717 86.9707 48.8483 82.7339 51.2952C74.23 56.2064 64.7641 60 54.5721 60V70Z" fill="#23B6BF" mask="url(#path-4-inside-1_222_105)"/>
</g>
<defs>
<filter id="filter0_d_222_105" x="0" y="40" width="111" height="37" filterUnits="userSpaceOnUse" color-interpolation-filters="sRGB">
<feFlood flood-opacity="0" result="BackgroundImageFix"/>
<feColorMatrix in="SourceAlpha" type="matrix" values="0 0 0 0 0 0 0 0 0 0 0 0 0 0 0 0 0 0 127 0" result="hardAlpha"/>
<feOffset dy="3"/>
<feGaussianBlur stdDeviation="2"/>
<feComposite in2="hardAlpha" operator="out"/>
<feColorMatrix type="matrix" values="0 0 0 0 1 0 0 0 0 0.0166667 0 0 0 0 0.252667 0 0 0 1 0"/>
<feBlend mode="normal" in2="BackgroundImageFix" result="effect1_dropShadow_222_105"/>
<feBlend mode="normal" in="SourceGraphic" in2="effect1_dropShadow_222_105" result="shape"/>
</filter>
</defs>
</svg>
